<?xml version="1.0" encoding="utf-8"?>
<!-- Generator: Adobe Illustrator 24.0.1, SVG Export Plug-In . SVG Version: 6.00 Build 0)  -->
<svg version="1.1" id="OliverWyman" xmlns="http://www.w3.org/2000/svg" xmlns:xlink="http://www.w3.org/1999/xlink" x="0px"
	 y="0px" width="1529.1636963px" height="177.6547699px" viewBox="0 0 1529.1636963 177.6547699"
	 style="enable-background:new 0 0 1529.1636963 177.6547699;" xml:space="preserve">
<style type="text/css">
	.st0{fill:#002C77;}
</style>
<g>
	<path class="st0" d="M374.0279846,142.8813324c-9.6875,0-18.6835938-1.7285156-26.9873047-5.1894531
		c-8.3046875-3.4589844-15.5429688-8.3046875-21.7119141-14.5312424
		c-6.1708984-6.2285156-10.9853516-13.5214844-14.4453125-21.8847656
		c-3.4599609-8.3613281-5.1904297-17.4433594-5.1904297-27.2480469c0-9.8007812,1.7304688-18.8837891,5.1904297-27.2470703
		c3.4599609-8.3613281,8.2744141-15.6562519,14.4453125-21.8847675
		c6.1689453-6.2275391,13.4072266-11.0722656,21.7119141-14.5322266c8.3037109-3.4599609,17.2998047-5.1894531,26.9873047-5.1894531
		c9.6884766,0,18.6845703,1.7294922,26.9882812,5.1894531s15.5400391,8.3046875,21.7119141,14.5322266
		c6.1679688,6.2285156,10.9853516,13.5234394,14.4453125,21.8847675c3.4599609,8.3632812,5.1894531,17.4462891,5.1894531,27.2470703
		c0,9.8046875-1.7294922,18.8867188-5.1894531,27.2480469c-3.4599609,8.3632812-8.2773438,15.65625-14.4453125,21.8847656
		c-6.171875,6.2265549-13.4082031,11.072258-21.7119141,14.5312424
		C392.7125549,141.1528168,383.7164612,142.8813324,374.0279846,142.8813324z M374.0279846,120.7387619
		c8.3046875,0,15.7138672-2.0175781,22.2304688-6.0566406c6.5146484-4.0351562,11.6484375-9.5996094,15.3974609-16.6933594
		c3.7460938-7.09375,5.6220703-15.078125,5.6220703-23.9609375c0-8.9960938-1.8759766-17.0107422-5.6220703-24.046875
		c-3.7490234-7.0332031-8.8828125-12.5693359-15.3974609-16.6074219c-6.5166016-4.0361347-13.9257812-6.055666-22.2304688-6.055666
		c-8.3037109,0-15.7158203,2.0195312-22.2304688,6.055666c-6.5166016,4.0380859-11.6503906,9.5742188-15.3964844,16.6074219
		c-3.7490234,7.0361328-5.6230469,15.0507812-5.6230469,24.046875c0,8.8828125,1.8740234,16.8671875,5.6230469,23.9609375
		c3.7460938,7.09375,8.8798828,12.6582031,15.3964844,16.6933594
		C358.3121643,118.7211838,365.7242737,120.7387619,374.0279846,120.7387619z"/>
	<path class="st0" d="M462.4303284,139.7680511V8.2885647h23.3554688V118.399559v21.3684921H462.4303284z"/>
	<path class="st0" d="M537.6832275,15.7270412c0,4.1523438-1.3271484,7.5849609-3.9785156,10.2939453
		c-2.6542969,2.7109375-6.1142578,4.0654297-10.3798828,4.0654297c-4.2685547,0-7.7285156-1.3544922-10.3798828-4.0654297
		c-2.6552429-2.7089844-3.9794617-6.1416016-3.9794617-10.2939453s1.3242188-7.5820312,3.9794617-10.2929688
		c2.6513672-2.7089841,6.1113281-4.0664062,10.3798828-4.0664062c4.265625,0,7.7255859,1.3574219,10.3798828,4.0664062
		C536.3560791,8.14501,537.6832275,11.5746975,537.6832275,15.7270412z M511.7340393,139.7680511V39.9467697h23.3544617v80.9372635
		v18.8840179H511.7340393z"/>
	<path class="st0" d="M588.3717041,139.7680511L548.581665,39.9467697h23.7011719l28.5449219,73.0068359l28.1992188-73.0068359
		h22.4902344l-39.4443359,99.8212814H588.3717041z"/>
	<path class="st0" d="M712.2398682,142.8813324c-10.8417969,0-20.4736328-2.0175781-28.890625-6.0546875
		c-8.4208984-4.0351562-15.0507812-9.9746017-19.8955078-17.8183517c-4.84375-7.8417969-7.265625-17.4726562-7.265625-28.890625
		c0-10.4941406,2.1621094-19.7226562,6.4873047-27.6806641s10.2939453-14.2128906,17.9052734-18.7705078
		c7.6123047-4.5546875,16.3193359-6.8330078,26.1230469-6.8330078c9.3417969,0,17.5,2.0488281,24.4794922,6.140625
		c6.9765625,4.0957031,12.3701172,9.8339844,16.1757812,17.2138672c3.8056641,7.3828125,5.7089844,16.0322266,5.7089844,25.9492188
		c0,1.3847656-0.0595703,2.7421875-0.1728516,4.0664062c-0.1162109,1.328125-0.2890625,3.3164062-0.5195312,5.96875h-73.3515625
		c1.3837891,8.3046875,5.0742188,14.7910156,11.0722656,19.4628906c5.9951172,4.6699219,14.0693359,7.0058594,24.2197266,7.0058594
		c12.9150391,0,24.7958984-4.0351562,35.6376953-12.109375v20.5859299
		c-5.1894531,3.5761719-11.1015625,6.4316406-17.7324219,8.5644531
		C725.588501,141.8149261,718.9273682,142.8813324,712.2398682,142.8813324z M705.6656494,54.8246994
		c-7.3818359,0-13.3798828,2.2792969-17.9912109,6.8339844c-4.6142578,4.5576172-7.4990234,10.9287109-8.6503906,19.1162109
		h51.9003906c0-1.4970703-0.1162109-2.8242188-0.3466797-3.9785156c-1.1542969-7.1503906-3.8652344-12.5996094-8.1308594-16.3486328
		C718.1783447,56.700676,712.5855713,54.8246994,705.6656494,54.8246994z"/>
	<path class="st0" d="M773.9996338,139.7680511V39.9467697h22.3173828l0.1728516,20.7607422
		c2.6513672-6.8037109,6.6875-12.2236328,12.1103516-16.2626953c5.4189453-4.0351562,11.53125-6.0546875,18.3378906-6.0546875
		c1.84375,0,4.0351562,0.1728516,6.5742188,0.5185547c2.5351562,0.3466797,4.5546875,0.8085938,6.0546875,1.3847656v22.3164062
		c-1.8466797-0.5751953-4.2685547-1.0947266-7.2666016-1.5566406c-3-0.4599609-5.7675781-0.6923828-8.3037109-0.6923828
		c-8.6494141,0-15.2539062,2.7978516-19.8085938,8.390625c-4.5576172,5.5957031-6.8330078,13.6972656-6.8330078,24.3056641
		v46.7109299H773.9996338z"/>
	<path class="st0" d="M887.1636963,139.7680511L847.5465088,8.2885647h23.5273438l29.4101562,97.2255859l29.0644531-95.4960938
		h22.1445312l29.4101562,95.3222656l29.7558594-97.0517578h22.4902344l-39.6171875,131.4794922h-23.7011719l-29.9296875-96.0146408
		l-29.2373047,96.0146408h-23.7001953V139.7680511z"/>
	<path class="st0" d="M1053.5894775,177.6547699c-2.7675781,0-5.7089844-0.375-8.8222656-1.125
		c-3.1152344-0.75-5.9414062-1.5859375-8.4765625-2.5078125v-20.7597656
		c2.3046875,0.8046875,4.9003906,1.5839844,7.7851562,2.3359375c2.8808594,0.7480469,5.5917969,1.1230469,8.1308594,1.1230469
		c5.5351562,0,10.0332031-1.3554688,13.4941406-4.0644531c3.4589844-2.7109375,6.8027344-7.9316406,10.0332031-15.65625
		l-43.0761719-97.0537033h23.8730469l31.3125,70.4111328l29.2382812-70.4111328h22.6621094l-40.828125,97.9189377
		c-4.4980469,10.7246094-9.0546875,18.9707031-13.6660156,24.7382812c-4.6152344,5.765625-9.515625,9.7148438-14.7050781,11.8496094
		C1065.3531494,176.5864105,1059.7008057,177.6547699,1053.5894775,177.6547699z"/>
	<path class="st0" d="M1152.3726807,139.7680511V39.9467697h22.4882812l0.1738281,15.9160156
		c2.7675781-5.8818359,6.890625-10.5234375,12.3691406-13.9257812c5.4765625-3.4013672,11.734375-5.1035156,18.7714844-5.1035156
		c15.453125,0,25.890625,6.7470703,31.3125,20.2402344c2.6523438-6.1113281,6.9765625-11.0117188,12.9746094-14.7050781
		c5.9960938-3.6894531,12.7421875-5.5351562,20.2421875-5.5351562c11.6464844,0,20.6132812,3.6621094,26.9003906,10.9853516
		c6.2851562,7.3251953,9.4296875,17.8486328,9.4296875,31.5722656v60.3769455h-23.3554688V83.716301
		c0-17.4140625-6.6914062-26.1230469-20.0683594-26.1230469c-7.0371094,0-12.515625,2.4511719-16.4355469,7.3525391
		c-3.921875,4.9033203-5.8808594,11.7939453-5.8808594,20.6738281v54.1484299h-23.1835938V83.5434494
		c0-17.3007812-6.5722656-25.9501953-19.7207031-25.9501953c-7.1523438,0-12.7167969,2.421875-16.6953125,7.265625
		s-5.96875,11.6503906-5.96875,20.4130859v54.4960861H1152.3726807z"/>
	<path class="st0" d="M1360.1422119,142.8813324c-10.3789062,0-18.7128906-2.8535156-24.9980469-8.5625
		c-6.2871094-5.7089844-9.4296875-13.291008-9.4296875-22.7499924c0-6.8027344,1.671875-12.7148438,5.0175781-17.7324219
		c3.34375-5.0175781,8.0722656-8.9355469,14.1855469-11.7636719c6.1132812-2.8251953,13.2617188-4.2382812,21.453125-4.2382812
		c9.5722656,0,18.3378906,1.6728516,26.2949219,5.0166016v-0.3457031c0-8.4179688-2.2207031-14.8183594-6.6601562-19.203125
		c-4.4414062-4.3818359-11.2734375-6.5742188-20.5-6.5742188c-5.421875,0-10.9863281,0.8652344-16.6953125,2.5947266
		c-5.7089844,1.7304688-11.0449219,4.2685547-16.0019531,7.6123047V46.3481369
		c4.7285156-2.6513672,10.0917969-4.9003906,16.0898438-6.7470703c5.9941406-1.84375,12.3398438-2.7675781,19.0292969-2.7675781
		c14.7617188,0,26.1230469,3.8056641,34.0800781,11.4179688c7.9589844,7.6113281,11.9375,18.5107422,11.9375,32.6962891v58.8203049
		h-20.2402344l-0.3457031-14.5312424c-2.7695312,5.4218674-7.1523438,9.7167892-13.1484375,12.8886642
		C1374.2125244,141.2953949,1367.5211182,142.8813324,1360.1422119,142.8813324z M1347.5133057,110.1860275
		c0,4.9589844,1.6132812,8.7949219,4.84375,11.5039062c3.2285156,2.7109375,7.7265625,4.0644531,13.4941406,4.0644531
		c8.1875,0,14.53125-2.3339844,19.0292969-7.0058594s7.0351562-11.4453125,7.6132812-20.328125
		c-6.5742188-2.9980469-14.0722656-4.4980469-22.4902344-4.4980469c-7.3828125,0-12.9746094,1.4140625-16.78125,4.2382812
		C1349.4156494,100.9887619,1347.5133057,104.9946213,1347.5133057,110.1860275z"/>
	<path class="st0" d="M1438.6851807,139.7680511V39.9467697h22.4882812l0.1738281,15.9160156
		c2.7675781-5.9951172,6.9472656-10.6660156,12.5429688-14.0126953c5.5917969-3.34375,12.0234375-5.0166016,19.2890625-5.0166016
		c11.53125,0,20.4140625,3.6621094,26.6425781,10.9853516c6.2265625,7.3251953,9.3417969,17.8486328,9.3417969,31.5722656
		v60.3769455h-23.3554688V83.716301c0-17.4140625-6.6894531-26.1230469-20.0683594-26.1230469
		c-7.3808594,0-13.1777344,2.4511719-17.3867188,7.3525391c-4.2109375,4.9033203-6.3144531,11.7939453-6.3144531,20.6738281
		v54.1484299H1438.6851807z"/>
	<path class="st0" d="M241.8673553,31.8845177L189.2959442,1.599647c-3.7024384-2.1328628-9.7609863-2.1328628-13.4634094,0
		L30.8006973,85.1482773l80.2570877-61.4886322L72.7639008,1.5996506c-3.7024307-2.1328664-9.7609711-2.1328664-13.4634094,0
		L6.7290821,31.8845215c-3.7024386,2.1328697-6.7317142,7.3739014-6.7290802,11.6422234v60.5439034
		c-0.0026338,4.277359,3.0266418,9.5183945,6.7290802,11.651268l52.5714111,30.284874
		c3.7024384,2.1328583,9.7609787,2.1328583,13.4634094,0l145.0318298-83.5486374l-80.2570801,61.4886322l38.2938843,22.0600052
		c3.7024231,2.1328583,9.7609711,2.1328583,13.4634094,0l52.5714111-30.284874
		c3.7024384-2.1328735,6.7317047-7.373909,6.7317047-11.6467438V43.5312691
		C248.5990601,39.2584229,245.5697937,34.0173874,241.8673553,31.8845177z"/>
</g>
</svg>
