<svg width="618" height="90" viewBox="0 0 618 90" fill="none" xmlns="http://www.w3.org/2000/svg">
<g>
<path d="M211.994 24.7901L194.515 10.0301C186.246 3.03012 161.882 -12.7399 123.922 19.8101L78.2533 58.9701C66.2769 69.2401 46.9735 80.2601 31.1522 66.8601L23.4034 60.3201C22.3342 59.4201 22.3244 57.7501 23.3936 56.8401L65.4432 20.7801C66.2671 20.0801 67.4638 20.0701 68.2877 20.7701C71.5049 23.4901 79.0674 29.8701 79.1066 29.9001C85.2566 35.0701 94.1727 34.9701 100.274 29.7401L106.571 24.3401C107.375 23.6501 106.875 22.3001 105.816 22.3401C96.7033 22.7101 91.7499 18.5201 89.6313 16.7201L72.1229 1.95012C69.0233 -0.669877 64.5212 -0.649877 61.4413 1.99012L3.08969 52.0301C1.69686 53.2201 0.666953 54.8101 0.235373 56.6101C-0.529701 59.8401 0.598292 63.1401 3.01122 65.1801L20.4902 79.9401C28.7589 86.9401 53.1235 102.71 91.083 70.1601L136.752 31.0001C148.728 20.7301 168.042 9.71012 183.853 23.1101L191.602 29.6501C192.671 30.5501 192.681 32.2201 191.612 33.1301L149.562 69.1901C148.738 69.8901 147.541 69.9001 146.718 69.2001C143.5 66.4801 135.938 60.1001 135.899 60.0701C129.749 54.9001 120.833 55.0001 114.732 60.2301L108.434 65.6301C107.63 66.3201 108.13 67.6701 109.19 67.6301C118.302 67.2601 123.255 71.4501 125.374 73.2501L142.863 88.0201C145.962 90.6401 150.464 90.6201 153.544 87.9801L211.896 37.9501C213.289 36.7601 214.319 35.1701 214.75 33.3701C215.515 30.1401 214.387 26.8401 211.974 24.8001L211.994 24.7901Z" fill="#00D37E"/>
<path d="M448.274 9.12988H437.347C436.118 9.12988 435.121 10.1462 435.121 11.3999V21.8599C435.121 23.1136 436.118 24.1299 437.347 24.1299H448.274C449.504 24.1299 450.501 23.1136 450.501 21.8599V11.3999C450.501 10.1462 449.504 9.12988 448.274 9.12988Z" fill="#08484a"/>
<path d="M448.431 30.9702H437.191C435.961 30.9702 434.964 31.9865 434.964 33.2402V78.8602C434.964 80.1139 435.961 81.1302 437.191 81.1302H448.431C449.661 81.1302 450.658 80.1139 450.658 78.8602V33.2402C450.658 31.9865 449.661 30.9702 448.431 30.9702Z" fill="#08484a"/>
<path d="M490.618 67.1798H486.901C481.388 67.1798 478.308 63.9398 478.308 57.8798V38.6798C478.308 38.1798 478.701 37.7798 479.191 37.7798H490.187C491.413 37.7798 492.413 36.7598 492.413 35.5098V26.4298C492.413 25.1798 491.413 24.1598 490.187 24.1598H479.721C479.23 24.1598 478.838 23.7598 478.838 23.2598V10.6798C478.838 9.3498 477.318 8.6298 476.327 9.4898L464.557 19.5798C463.321 20.6398 462.615 22.1898 462.615 23.8298V59.8298C462.615 72.6898 469.716 81.1198 483.605 81.1198H490.608C491.834 81.1198 492.835 80.0998 492.835 78.8498V69.4398C492.835 68.1898 491.834 67.1698 490.608 67.1698L490.618 67.1798Z" fill="#08484a"/>
<path d="M422.752 40.7698C422.075 35.3698 419.918 31.1298 416.298 28.0398C416.043 27.8198 415.788 27.6198 415.523 27.4098C415.445 27.3498 415.356 27.2798 415.268 27.2198C415.082 27.0798 414.905 26.9498 414.719 26.8198C414.621 26.7498 414.523 26.6798 414.415 26.6098C414.229 26.4898 414.052 26.3698 413.866 26.2498C413.768 26.1898 413.669 26.1198 413.571 26.0598C413.307 25.8998 413.042 25.7398 412.767 25.5898C412.64 25.5198 412.502 25.4498 412.375 25.3798C412.218 25.2998 412.071 25.2198 411.914 25.1398C411.757 25.0598 411.59 24.9798 411.423 24.8998C411.296 24.8398 411.168 24.7798 411.041 24.7198C410.835 24.6298 409.157 23.9298 408.02 23.5898C407.971 23.5798 407.922 23.5598 407.872 23.5498C407.608 23.4698 407.029 23.3198 407 23.3098C405.832 23.0098 404.616 22.7798 403.351 22.6198C401.919 22.4398 400.428 22.3398 398.868 22.3398C394.189 22.3398 390.031 23.1198 386.372 24.6898C382.056 26.5398 379.055 29.3698 377.427 31.2198C376.573 32.1898 376.681 33.6498 377.662 34.4798L384.763 40.4798C385.666 41.2398 386.98 41.1398 387.804 40.2798C396.132 31.6598 408.177 34.6998 408.177 41.6598C408.177 41.8998 408.157 42.1298 408.137 42.3498C408.137 42.3998 408.128 42.4498 408.118 42.4998C408.088 42.7098 408.059 42.9198 408.01 43.1098C407.961 43.3198 407.892 43.5198 407.814 43.6998C407.814 43.7098 407.804 43.7298 407.794 43.7398C407.716 43.9198 407.627 44.0898 407.519 44.2498C407.353 44.5098 407.156 44.7398 406.921 44.9298C406.078 45.6398 404.744 46.0698 402.919 46.2198L393.719 47.1098C377.946 48.6298 371.914 56.1198 371.914 65.6598C371.914 73.2198 376.181 77.9098 380.899 80.1798C386.038 82.6598 394.415 83.2698 401.448 79.5698C403.449 78.5198 405.185 77.2398 406.676 75.7698C407.362 75.0998 408.186 75.1898 408.186 76.3998V78.8098C408.186 80.0598 409.187 81.0798 410.413 81.0798H420.761C421.987 81.0798 422.988 80.0598 422.988 78.8098V44.6498C422.988 43.2798 422.909 41.9698 422.752 40.7298V40.7698ZM400.957 68.3798C398.77 69.6498 396.426 70.2798 393.944 70.2798C391.678 70.2798 389.903 69.7598 388.628 68.7198C387.353 67.6798 386.705 66.2598 386.705 64.4698C386.705 57.5798 395.092 58.6798 406.715 56.5798C407.843 56.3798 408.245 56.7098 408.216 57.8498C408.167 59.4698 407.098 64.8298 400.948 68.3798H400.957Z" fill="#08484a"/>
<path d="M254.289 28.27C254.289 22.22 260.606 19.94 267.687 21.74C271.611 22.73 275.564 25.32 279.193 27.99C280.086 28.65 281.253 28.77 282.106 28.04L290.1 21.18C291.12 20.3 291.169 18.69 290.189 17.77C272.405 1.17004 238.497 4.21004 238.497 29.56C238.497 56.25 277.418 46.11 275.701 60.86C274.936 67.48 264.519 69.05 256.614 65.44C253.543 64.04 250.954 62.38 248.06 59.86C247.138 59.06 245.971 59.01 245.049 59.8L236.27 67.33C235.28 68.18 235.191 69.71 236.094 70.65C254.24 89.53 291.611 84.69 291.611 60.42C291.611 32 254.299 42.63 254.299 28.25L254.289 28.27Z" fill="#08484a"/>
<path d="M522.506 22.3398C508.931 22.3398 500.24 28.9898 500.24 39.8898C500.24 59.6198 530.029 54.8298 530.029 64.8598C530.029 68.1298 527.273 70.0898 522.604 70.0898C517.935 70.0898 513.561 67.5698 508.95 64.0798C507.96 63.3298 507.146 63.1898 506.057 64.0598L499.505 69.7298C498.504 70.5898 498.436 72.1598 499.387 73.0798C505.086 78.5998 513.404 82.5198 522.084 82.5198C536.395 82.5198 545.625 75.4298 545.625 63.8798C545.625 42.7298 515.728 48.2898 515.728 39.0198C515.728 36.0798 518.063 34.3298 522.3 34.3298C525.262 34.3298 529.352 35.9398 532.962 38.0198C534.276 38.7698 535.345 38.7398 536.385 37.8498L542.673 32.4098C543.801 31.4298 543.693 29.6198 542.457 28.7798C536.778 24.9098 529.392 22.3398 522.516 22.3398H522.506Z" fill="#08484a"/>
<path d="M368.609 22.8802C366.127 23.1402 363.783 23.8202 361.664 24.8002C359.545 25.7802 357.486 27.2502 356.093 28.3502C355.534 28.7902 354.994 28.5702 354.994 27.5602V26.4302C354.994 25.1802 353.994 24.1602 352.768 24.1602H342.37C341.144 24.1602 340.144 25.1802 340.144 26.4302V78.8602C340.144 80.1102 341.144 81.1302 342.37 81.1302H353.611C354.837 81.1302 355.838 80.1102 355.838 78.8602V49.7802C355.838 42.7902 360.644 38.4702 368.903 37.8602C370.08 37.7702 371.002 36.8002 371.002 35.6002V25.1502C371.002 23.8302 369.893 22.7502 368.599 22.8902L368.609 22.8802Z" fill="#08484a"/>
<path d="M327.942 67.1798H324.224C318.712 67.1798 315.632 63.9398 315.632 57.8798V38.6798C315.632 38.1798 316.024 37.7798 316.515 37.7798H327.51C328.736 37.7798 329.737 36.7598 329.737 35.5098V26.4298C329.737 25.1798 328.736 24.1598 327.51 24.1598H317.045C316.554 24.1598 316.162 23.7598 316.162 23.2598V10.6798C316.162 9.3498 314.641 8.6298 313.651 9.4898L301.625 19.7998C300.556 20.7098 299.948 22.0598 299.948 23.4798V59.8298C299.948 72.6898 307.05 81.1198 320.939 81.1198H327.942C329.168 81.1198 330.168 80.0998 330.168 78.8498V69.4398C330.168 68.1898 329.168 67.1698 327.942 67.1698V67.1798Z" fill="#08484a"/>
<path d="M616.463 9.12988H607.871C601.995 9.12988 596.502 12.1399 593.266 17.1499L583.702 31.9399L569.372 11.1799C568.489 9.89988 567.047 9.13988 565.517 9.13988H554.129C552.324 9.13988 551.275 11.2099 552.315 12.7099L573.638 43.5799L557.866 66.9199C554.826 71.3599 553.031 74.2499 550.725 76.4399C549.666 77.4399 548.617 78.2699 547.675 78.9299C546.724 79.5999 547.185 81.1199 548.342 81.1199H556.934C562.81 81.1199 568.303 78.1099 571.539 73.0999L582.378 56.3399L598.131 79.0899C599.013 80.3599 600.445 81.1199 601.976 81.1199H613.373C615.178 81.1199 616.228 79.0499 615.188 77.5499L592.491 44.6999L606.929 23.3399C609.97 18.8999 611.765 16.0099 614.07 13.8199C615.129 12.8199 616.179 11.9899 617.12 11.3299C618.072 10.6599 617.611 9.13988 616.453 9.13988L616.463 9.12988Z" fill="#08484a"/>
</g>
<defs>
<clipPath id="clip0_332_73084">
</clipPath>
</defs>
</svg>
